<svg xmlns="http://www.w3.org/2000/svg" viewBox="0 0 857 278" role="img" aria-label="Wininlife Foundation logotyp">
  <defs>
    <linearGradient id="bg" x1="0" y1="0" x2="0" y2="1">
      <stop offset="0%" stop-color="#57B2FF"/>
      <stop offset="100%" stop-color="#1E4ED8"/>
    </linearGradient>
    <linearGradient id="shine" x1="0" y1="0" x2="1" y2="1">
      <stop offset="0%" stop-color="#AEE0FF" stop-opacity="0.65"/>
      <stop offset="100%" stop-color="#AEE0FF" stop-opacity="0"/>
    </linearGradient>
    <linearGradient id="fade" x1="0" y1="0" x2="1" y2="0">
      <stop offset="0%" stop-color="#4D9EFF" stop-opacity="0.45"/>
      <stop offset="100%" stop-color="#4D9EFF" stop-opacity="0"/>
    </linearGradient>
  </defs>

  <rect x="0" y="0" width="278" height="278" rx="38" fill="url(#bg)"/>
  <path d="M-20 174 C 36 124, 120 120, 300 162 L 300 -20 L -20 -20 Z" fill="url(#shine)"/>
  <rect x="58" y="136" width="40" height="76" rx="8" fill="#63A4FF" stroke="#2D67D8"/>
  <rect x="108" y="116" width="40" height="96" rx="8" fill="#63A4FF" stroke="#2D67D8"/>
  <rect x="158" y="86" width="40" height="126" rx="8" fill="#63A4FF" stroke="#2D67D8"/>
  <path d="M194 48l6 18 18 6-18 6-6 18-6-18-18-6 18-6z" fill="#98D0FF"/>

  <rect x="250" y="0" width="300" height="278" fill="url(#fade)"/>
  <text x="290" y="112" font-size="98" font-family="Inter, Segoe UI, Arial, sans-serif" font-weight="700" fill="#032777">Wininlife</text>
  <text x="304" y="228" font-size="98" font-family="Inter, Segoe UI, Arial, sans-serif" fill="#032777">Foundation</text>
</svg>
